# xmcd
#
# Track frame offsets: 
#        150
#        16538
#        32124
#        48705
#        64996
#        77603
#        103101
#        117938
#        128157
#        147320
#        160319
#        179583
#
# Disc length: 2471 seconds
#
# Revision: 0
# Processed by: cddbd v1.5.2PL0 Copyright (c) Steve Scherf et al.
# Submitted via: ExactAudioCopy v1.0b3
#
DISCID=a409a50c
DTITLE=Kat Frankie - Please Don't Give Me What I Want
DYEAR=2012
DGENRE=Singer/Songwriter
TTITLE0=Bina
TTITLE1=Oh Darling
TTITLE2=Frauen Verlassen
TTITLE3=Casual Advice
TTITLE4=Please Don't Give Me What I Want
TTITLE5=Requiem for a Queen
TTITLE6=Heels on the Board
TTITLE7=Almost Done
TTITLE8=Der Ertrag
TTITLE9=Too Young
TTITLE10=Ophelia
TTITLE11=Take Care of Him
EXTD=
EXTT0=
EXTT1=
EXTT2=
EXTT3=
EXTT4=
EXTT5=
EXTT6=
EXTT7=
EXTT8=
EXTT9=
EXTT10=
EXTT11=
PLAYORDER=
